<?xml version="1.0" encoding="UTF-8" standalone="no"?>
<!-- Created with Inkscape (http://www.inkscape.org/) -->

<svg
   version="1.1"
   id="svg1"
   width="865.35999"
   height="865.35999"
   viewBox="0 0 865.35999 865.35999"
   sodipodi:docname="02_MyFriends_RGB.eps"
   xmlns:inkscape="http://www.inkscape.org/namespaces/inkscape"
   xmlns:sodipodi="http://sodipodi.sourceforge.net/DTD/sodipodi-0.dtd"
   xmlns="http://www.w3.org/2000/svg"
   xmlns:svg="http://www.w3.org/2000/svg">
  <defs
     id="defs1" />
  <sodipodi:namedview
     id="namedview1"
     pagecolor="#ffffff"
     bordercolor="#000000"
     borderopacity="0.25"
     inkscape:showpageshadow="2"
     inkscape:pageopacity="0.0"
     inkscape:pagecheckerboard="0"
     inkscape:deskcolor="#d1d1d1">
    <inkscape:page
       x="0"
       y="0"
       inkscape:label="1"
       id="page1"
       width="865.35999"
       height="865.35999"
       margin="0"
       bleed="0" />
  </sodipodi:namedview>
  <g
     id="g1"
     inkscape:groupmode="layer"
     inkscape:label="1">
    <g
       id="group-R5">
      <path
         id="path2"
         d="M 5851.95,3686.56 C 6081.08,2247.51 5100.25,895.172 3661.18,666.051 2222.11,436.93 869.773,1417.76 640.648,2856.84 411.527,4295.91 1392.39,5648.23 2831.44,5877.35 4270.5,6106.48 5622.84,5125.63 5851.95,3686.56"
         style="fill:#ffffff;fill-opacity:1;fill-rule:nonzero;stroke:none"
         transform="matrix(0.13333333,0,0,-0.13333333,0,865.36)" />
      <path
         id="path3"
         d="M 2840.1,5823.02 C 1433.3,5599.03 471.012,4272.29 695.004,2865.49 918.992,1458.68 2245.73,496.422 3652.54,720.41 5059.31,944.391 6021.62,2271.13 5797.65,3677.91 5573.66,5084.71 4246.9,6047.01 2840.1,5823.02 M 3669.83,611.711 C 2203.09,378.191 819.828,1381.47 586.301,2848.18 352.766,4314.93 1356.06,5698.18 2822.8,5931.71 4289.52,6165.23 5672.79,5161.95 5906.33,3695.22 6139.86,2228.5 5136.57,845.25 3669.83,611.711"
         style="fill:#dd1d26;fill-opacity:1;fill-rule:nonzero;stroke:none"
         transform="matrix(0.13333333,0,0,-0.13333333,0,865.36)" />
      <path
         id="path4"
         d="M 3636.51,831.512 C 4344.72,944.27 4934.78,1345.93 5306.76,1896.81 L 1718.02,1325.43 C 2242.69,917.289 2928.29,718.762 3636.51,831.512"
         style="fill:#dd1d26;fill-opacity:1;fill-rule:nonzero;stroke:none"
         transform="matrix(0.13333333,0,0,-0.13333333,0,865.36)" />
      <path
         id="path5"
         d="M 2854.24,5744.74 C 1497.5,5528.73 572.738,4253.73 788.75,2896.97 825.152,2668.33 892.281,2452.36 984.156,2251.62 l 1866.114,297.12 490.05,354.79 576,-185.06 1800.36,286.64 c 25,219.34 21.73,445.48 -14.68,674.14 C 5485.98,5036 4211,5960.77 2854.24,5744.74"
         style="fill:#dd1d26;fill-opacity:1;fill-rule:nonzero;stroke:none"
         transform="matrix(0.13333333,0,0,-0.13333333,0,865.36)" />
      <path
         id="path6"
         d="m 1849.04,3024.93 -43.44,-6.91 c -9.76,-1.54 -18.99,5.17 -20.54,14.92 l -83.71,525.69 c -0.28,1.82 -0.42,2.7 -1.32,2.55 -0.88,-0.14 -0.88,-0.14 -1.5,-2.04 l -84.99,-282.61 c -6.03,-19.16 -13.64,-28.56 -35.78,-32.09 l -40.79,-6.49 c -22.17,-3.52 -32.29,3.05 -43.99,19.38 l -168.56,242.24 c -1.16,1.63 -1.16,1.63 -2.04,1.49 -0.91,-0.15 -0.77,-1.03 -0.49,-2.84 l 83.71,-525.7 c 1.55,-9.74 -5.14,-18.99 -14.89,-20.56 l -43.46,-6.91 c -9.76,-1.55 -18.99,5.18 -20.54,14.91 l -97.96,615.27 c -2.25,14.16 7.42,27.55 21.6,29.81 l 57.63,9.17 c 15.96,2.54 23.61,0.1 30.77,-10.57 l 194.69,-280.79 c 4.83,-7.42 7.77,-8.76 12.2,-8.06 4.43,0.71 6.81,2.9 9.1,11.46 l 97.86,327.37 c 3.48,12.35 10,17.05 25.97,19.59 l 57.61,9.18 c 14.2,2.26 27.55,-7.47 29.8,-21.63 l 97.97,-615.26 c 1.55,-9.74 -5.15,-19 -14.91,-20.57"
         style="fill:#ffffff;fill-opacity:1;fill-rule:nonzero;stroke:none"
         transform="matrix(0.13333333,0,0,-0.13333333,0,865.36)" />
      <path
         id="path7"
         d="m 2298.65,3574.66 -64.96,-533.95 c -12.26,-100.11 -39.4,-140.81 -141.37,-157.04 -24.82,-3.94 -56.4,-5.32 -75.72,-3.86 -11.09,0.99 -19.46,2.37 -20.88,11.23 l -5.22,32.79 c -1.55,9.77 4.82,15.32 14.57,16.89 l 2.67,0.41 c 19.78,1.34 60.24,4.13 79.74,7.23 50.54,8.05 70.58,24.89 75.78,89.32 l 3.08,37.79 -12.43,-1.98 c -26.58,-4.23 -50.63,-1.69 -75.33,50.7 l -182.41,386.39 c -1.18,1.62 -1.61,4.31 -1.9,6.08 -1.41,8.86 2.92,15.94 13.58,17.63 l 48.75,7.77 c 7.08,1.12 14.43,-5 17.33,-11.82 l 165.87,-368.12 c 7.26,-17.03 13.76,-17.8 19.96,-16.82 l 14.18,2.27 43.66,422.38 c 0.63,7.38 6.74,14.73 14.71,16 l 49.65,7.91 c 8.87,1.41 15.17,-3.97 16.59,-12.84 0.28,-1.77 0.71,-4.45 0.1,-6.36"
         style="fill:#ffffff;fill-opacity:1;fill-rule:nonzero;stroke:none"
         transform="matrix(0.13333333,0,0,-0.13333333,0,865.36)" />
      <path
         id="path8"
         d="m 2781.28,3488.82 -272.15,-43.33 46.16,-289.92 c 1.54,-9.75 -5.17,-19.01 -14.93,-20.55 l -45.21,-7.21 c -9.75,-1.55 -19,5.17 -20.54,14.92 l -76.8,482.28 c -18.76,117.89 38.46,175.19 162.6,194.95 52.3,8.33 135.9,19.83 173.7,22.22 5.46,-0.03 10.01,-5.69 10.85,-11.02 l 7.06,-44.3 c 1,-6.22 -1.87,-11.21 -8.06,-12.2 l -171.1,-27.24 c -93.98,-14.96 -105.09,-42.19 -94.37,-109.57 l 19.63,-123.22 272.16,43.33 c 9.75,1.55 19.01,-5.17 20.56,-14.91 l 5.37,-33.7 c 1.55,-9.75 -5.17,-18.98 -14.93,-20.53"
         style="fill:#ffffff;fill-opacity:1;fill-rule:nonzero;stroke:none"
         transform="matrix(0.13333333,0,0,-0.13333333,0,865.36)" />
      <path
         id="path9"
         d="m 3089.44,3659.67 c -40.79,-6.48 -76.32,-23.05 -116.42,-56.73 l 59.14,-371.44 c 1.41,-8.87 -5.13,-19.01 -14.89,-20.56 l -43.45,-6.91 c -8.87,-1.42 -18.11,5.31 -19.67,15.04 l -71.98,452.16 c -1.56,9.75 4.26,18.86 14.01,20.41 l 41.67,6.63 c 9.75,1.56 18.13,-5.29 19.68,-15.05 l 2.97,-18.61 c 39.38,38.07 78.33,56.08 118.21,62.43 12.43,1.98 19.47,-2.33 21.17,-12.96 l 5.77,-36.36 c 1.55,-9.76 -3.79,-16.07 -16.21,-18.05"
         style="fill:#ffffff;fill-opacity:1;fill-rule:nonzero;stroke:none"
         transform="matrix(0.13333333,0,0,-0.13333333,0,865.36)" />
      <path
         id="path10"
         d="m 3330.19,3260.76 -42.57,-6.77 c -9.75,-1.55 -19,5.17 -20.55,14.91 l -71.98,452.15 c -1.56,9.74 5.13,19.01 14.91,20.56 l 42.55,6.77 c 9.75,1.56 18.98,-5.18 20.53,-14.92 l 71.99,-452.14 c 1.55,-9.75 -5.14,-19 -14.88,-20.56 m -88.29,565.92 -45.21,-7.21 c -9.76,-1.55 -18.99,5.16 -20.55,14.92 l -11.28,70.9 c -1.56,9.75 5.12,19 14.88,20.55 l 45.22,7.21 c 9.74,1.55 19.01,-5.16 20.56,-14.92 l 11.29,-70.9 c 1.55,-9.75 -5.16,-19.01 -14.91,-20.55"
         style="fill:#ffffff;fill-opacity:1;fill-rule:nonzero;stroke:none"
         transform="matrix(0.13333333,0,0,-0.13333333,0,865.36)" />
      <path
         id="path11"
         d="m 3730.48,3618.11 c -15.95,100.19 -60.28,133.12 -138.3,120.69 -76.24,-12.13 -111.89,-62.37 -96.65,-158.1 l 1.27,-7.99 234.95,37.41 z m 72.78,-57.5 -297,-47.29 1.98,-12.4 c 16.8,-105.5 64.67,-137.86 146.23,-124.87 51.42,8.19 116.47,22.16 156.25,34.87 l 4.43,0.71 c 7.1,1.13 14.76,-1.31 16.17,-10.18 l 4.78,-30.13 c 1.84,-11.52 -0.7,-18.32 -14.47,-23.22 -48.99,-17.79 -96.91,-30.9 -156.28,-40.35 -101.96,-16.23 -208.88,15.83 -235.14,180.74 l -12.7,79.78 c -20.2,126.8 37.01,218.61 163.8,238.79 129.41,20.61 208.01,-50.48 228.05,-176.39 l 7.63,-47.88 c 1.83,-11.52 -3.1,-20.48 -13.73,-22.18"
         style="fill:#ffffff;fill-opacity:1;fill-rule:nonzero;stroke:none"
         transform="matrix(0.13333333,0,0,-0.13333333,0,865.36)" />
      <path
         id="path12"
         d="m 4316.8,3417.85 -42.56,-6.77 c -9.75,-1.56 -19.02,5.16 -20.56,14.91 l -46.44,291.67 c -14.24,89.53 -48.76,112.22 -116.15,101.49 -37.23,-5.92 -76.65,-26.73 -114.18,-53.65 l 59.55,-374.09 c 1.43,-8.87 -5.13,-19.01 -14.9,-20.56 l -43.42,-6.92 c -8.88,-1.41 -18.12,5.31 -19.69,15.06 l -71.97,452.14 c -1.54,9.74 4.26,18.87 14.02,20.42 l 44.34,7.06 c 9.74,1.55 18.1,-5.31 19.64,-15.05 l 2.7,-16.87 c 44.39,35.26 82.16,54.9 134.46,63.22 106.38,16.94 164.85,-41.93 183.63,-159.83 l 46.45,-291.67 c 1.54,-9.75 -5.19,-19.01 -14.92,-20.56"
         style="fill:#ffffff;fill-opacity:1;fill-rule:nonzero;stroke:none"
         transform="matrix(0.13333333,0,0,-0.13333333,0,865.36)" />
      <path
         id="path13"
         d="m 4669.28,3903.93 c -30.11,0.67 -76.36,-5.78 -104.72,-10.3 -86.88,-13.83 -106.64,-72.44 -91.54,-167.3 l 10.16,-63.8 c 15.4,-96.66 51.47,-146.35 139.25,-132.38 30.14,4.81 73.17,14.38 102.89,21.83 z m 124.75,-401 c -53.27,-19.38 -106.64,-32.44 -160.73,-41.06 -132.09,-21.03 -206.95,55.21 -228.14,188.23 l -10.16,63.8 c -22.16,139.2 29.26,227.37 158.7,247.99 27.48,4.37 69.58,8.36 105.13,7.63 l -26.25,164.93 c -1.43,8.87 4.41,17.99 14.18,19.54 l 45.2,7.2 c 8.85,1.41 17.08,-4.57 18.63,-14.32 l 98.8,-620.59 c 1.85,-11.51 0.17,-18.17 -15.36,-23.35"
         style="fill:#ffffff;fill-opacity:1;fill-rule:nonzero;stroke:none"
         transform="matrix(0.13333333,0,0,-0.13333333,0,865.36)" />
      <path
         id="path14"
         d="m 5078.29,3532.71 c -32.8,-5.23 -97.07,-12.69 -142.22,-8.98 -11.94,0.82 -19.88,5.03 -21.43,14.78 l -4.95,31.02 c -1.26,7.98 4.99,14.4 13.87,15.82 l 3.52,0.56 c 43.42,1.48 108.85,7.33 140.76,12.4 57.64,9.18 85.36,29.06 77.72,76.94 -4.23,26.6 -22.86,40.92 -78.22,63 l -97.96,38.92 c -59.33,24.21 -101.75,56.55 -110.63,112.4 -14.67,92.18 50.38,128.89 141.69,143.43 49.65,7.91 97.35,10.98 140.15,10.51 11.81,0.07 18.1,-5.3 19.65,-15.06 l 4.67,-29.24 c 1.68,-10.63 -3.81,-16.07 -12.68,-17.48 l -2.66,-0.42 c -31.46,-2.26 -88.9,-6.88 -138.55,-14.78 -49.63,-7.91 -81.45,-19.31 -74.25,-64.54 4.23,-26.61 27.3,-40.21 71.9,-57.62 l 96.06,-38.37 c 80.53,-31.69 110.53,-66.04 118.86,-118.33 14.41,-90.45 -46.01,-139.15 -145.3,-154.96"
         style="fill:#ffffff;fill-opacity:1;fill-rule:nonzero;stroke:none"
         transform="matrix(0.13333333,0,0,-0.13333333,0,865.36)" />
      <path
         id="path15"
         d="m 34.722127,-1.1227705 -2.07e-4,-3.2752176 c -0.0036,-0.498964 -0.281485,-0.8399193 -0.767033,-0.8460943 l -13.516981,0.00572 c -7.41553,-0.00691 -8.622057,-1.9673034 -8.615685,-7.2943966 l 0.0025,-38.067697 c -0.0074,-0.772513 -0.618804,-1.403937 -1.389473,-1.408081 l -3.5719128,3.93e-4 c -0.7590966,-0.0023 -1.4076255,0.64195 -1.4001971,1.414463 l -0.00246,38.067697 c -6.13e-4,11.54611515 7.4195379,13.01335625 14.9063489,13.0197602 6.586998,-0.006454 11.838428,-0.34440354 13.65313,-0.63668467 0.413759,-0.0645979 0.705056,-0.55217562 0.70201,-0.97985903 z m 13.081892,-44.9338085 -0.0091,-5.602487 c 0.0041,-0.770669 -0.618805,-1.403937 -1.389474,-1.408081 l -3.571913,3.93e-4 c -0.759096,-0.0023 -1.396052,0.643794 -1.400197,1.414463 l 0.0091,5.602487 c -0.0023,0.759097 0.632221,1.394209 1.391318,1.396509 l 3.571913,-3.93e-4 c 0.770669,0.0041 1.396052,-0.643794 1.398353,-1.402891 z m -0.138569,44.6557101 0.0058,-35.7057101 c 0.0023,-0.759096 -0.632221,-1.394208 -1.404735,-1.38678 l -3.358071,-0.0011 c -0.770669,-0.0041 -1.394208,0.632222 -1.396509,1.391318 l -0.0058,35.7057098 c 0.0074,0.77251344 0.632221,1.39420854 1.40289,1.39835287498 l 3.358071,0.001129805 c 0.772513,-0.0074284 1.405781,-0.63037693 1.398353,-1.40289038 z m 30.507203,-48.0190941 8.61e-4,-2.313852 c 0.0052,-0.628108 -0.54397,-0.905481 -1.316163,-1.123467 -0.916597,-0.205398 -2.023891,-0.405584 -3.923477,-0.399762 -6.147741,0.0053 -9.788614,2.225579 -9.795018,9.71239 l 0.0032,5.043815 -6.789267,0.0098 c -0.770669,-0.0041 -1.335009,0.558588 -1.339661,1.257977 l -0.0057,1.897742 c 0.0088,0.68966 0.572835,1.171146 1.344012,1.24657 l 6.796695,0.762693 -0.0077,31.9199554 c 0.0069,0.70123296 0.630376,1.40578135735 1.401046,1.40992569 L 67.95926,0.00260206 c 0.712805,-0.00507656 1.345565,-0.69930566 1.338645,-1.40053856 l 0.0077,-31.9199555 7.346094,-0.0042 c 0.770669,0.0041 1.323943,-0.489153 1.328595,-1.188541 l -0.004,-2.729963 c 0.0047,-0.699389 -0.559925,-1.252155 -1.330594,-1.2563 l -7.346094,0.0042 -0.0032,-5.043815 c 0.0091,-3.855191 0.982864,-4.827352 4.271499,-4.837287 l 3.369644,0.003 c 0.770669,0.0041 1.242613,-0.276647 1.235184,-1.049161 z m 34.450667,30.593723 -0.004,-3.774182 c 0.004,-9.931652 -5.17215,-16.393205 -15.38892,-16.395579 -10.016349,0.0058 -15.542624,6.387555 -15.546521,16.390487 l 0.0063,6.290303 c 3.19e-4,13.0295901 7.847293,16.80763736 15.892776,16.80813587 4.687405,-6.3128e-4 8.527985,-0.42100991 12.531725,-1.19511833 1.11397,-0.21407982 1.39185,-0.69192894 1.39498,-1.60515934 l -10e-4,-2.37356 c 0.005,-0.6993887 -0.56578,-0.9920225 -1.11288,-0.9842729 -0.14071,-0.010557 -0.21199,-0.01005 -0.35456,-0.00903 -3.22537,0.5065474 -8.40603,0.772709 -12.465327,0.7785 -6.442592,-0.00613 -9.724378,-3.0922933 -9.72591,-11.4228993 l 7.77e-4,-0.972938 23.44863,-0.0013 c 0.84195,0.0036 1.32108,-0.620141 1.32421,-1.533371 z m -6.22425,-3.16346 -18.54738,-8.42e-4 -0.0083,-0.618379 c 0.0059,-7.558092 3.364589,-10.986314 9.392915,-10.986862 6.145905,0.0063 9.157825,3.073209 9.154465,10.987704 z m 38.98682,12.3300054 c 0.005,-4.1287404 -1.89853,-7.1495754 -7.70266,-10.5664854 l -6.92287,-4.141049 c -3.21344,-1.876741 -4.82782,-3.213864 -4.83701,-5.315718 0.0112,-3.570069 2.59134,-4.048902 6.51965,-4.051833 3.91674,-0.0048 8.40442,0.354363 10.85263,0.554633 0.0713,-5.08e-4 0.14256,-0.001 0.20227,-0.0034 0.69939,0.0047 1.19397,-0.343732 1.18604,-1.187526 l 8.6e-4,-2.313852 c 0.004,-0.77067 -0.41737,-1.253171 -1.32189,-1.385444 -3.29085,-0.571882 -7.00786,-0.926876 -10.9246,-0.922101 -7.21511,0.0013 -12.66451,2.028355 -12.67428,9.312898 0.008,4.415706 2.87534,7.423902 7.14966,10.015562 l 7.05805,4.186326 c 3.9974,2.393266 5.25537,3.732926 5.25484,5.8213641 0.004,3.7741816 -2.38248,4.9721817 -6.92733,4.9717977 -2.51612,0.00251 -7.63191,-0.3617915 -10.98329,-0.7771878 -0.0713,5.077e-4 -0.14257,0.00102 -0.28513,0.00203 -0.70123,0.00692 -1.26474,0.41552 -1.26017,1.057045 l 0.002,2.4448406 c -0.002,0.7590965 0.55757,1.19244724 1.4626,1.39600105 3.43728,0.84441621 8.48262,1.05508834 11.07002,1.05207381 7.84506,-0.007707 13.0814,-3.00618336 13.08061,-10.15000866 z m 27.78748,8.6081038 -0.002,-2.4448406 c 0.005,-0.6993887 -0.48477,-0.9791132 -1.45771,-0.9798904 l -3.92831,0.00293 c -2.80124,0.00454 -3.77824,-0.5664843 -3.7691,-4.421675 l -5.3e-4,-24.4215712 7.55994,-0.0057 c 0.77066,0.0041 1.38079,-0.622493 1.38493,-1.393162 l 3.5e-4,-2.385133 c 0.002,-0.759096 -0.62064,-1.392364 -1.39131,-1.396508 l -7.55994,0.0057 0.005,-7.629372 c -0.007,-0.701233 -0.49602,-1.206372 -1.05469,-1.200467 -0.0713,5.08e-4 -0.14257,9.99e-4 -0.21385,0.0015 l -3.63913,0.571145 c -0.76965,0.138416 -1.24929,0.690914 -1.2521,1.378729 l -0.003,6.870276 -6.78927,0.0098 c -0.77067,-0.0041 -1.33551,0.487308 -1.33966,1.257977 l -0.006,1.897742 c 0.009,0.76094 0.57284,1.171146 1.34401,1.246571 l 6.7967,0.762692 5.3e-4,24.4215722 c -0.005,7.7006529 3.07237,9.38955726 9.51496,9.39569167 1.32935,-0.001761 3.14322,-0.13990836 4.55205,-0.3426019 0.90248,-0.15284901 1.24242,-0.57334214 1.24758,-1.20145027 z m 36.40499,-36.2539322 c 0.005,-0.699389 -0.41501,-1.193463 -1.12782,-1.188386 l -3.9149,-0.0068 c -0.62995,0.0064 -1.18138,0.488137 -1.32961,1.04598 l -8.54008,31.9961355 -1.11549,2.382e-4 c -0.4874,0.0054 -0.98553,-0.1451825 -1.33263,-1.5414218 l -8.2599,-30.3775919 c -0.12532,-0.553968 -0.62835,-1.120659 -1.18702,-1.114754 l -3.85519,-0.0091 c -0.83222,0.0098 -1.25266,0.488645 -1.25731,1.188034 0.001,0.142561 0.004,0.34483 0.0767,0.486883 l 9.29634,31.9904811 c 1.26588,4.34317269 3.08617,4.83497778447 5.18618,4.83736103 l 0.98451,0.00262136 -0.70591,2.86602771 c -1.18463,4.9019996 -2.95534,5.960754 -6.92995,5.9563087 -1.55475,0.00144 -4.67787,-0.2826468 -6.23364,-0.423768 -0.0713,5.076e-4 -0.14256,0.00102 -0.20227,0.00337 -0.77067,-0.00414 -1.32496,0.3465912 -1.32726,1.1056878 l 0.003,2.5874013 c -0.005,0.699389 0.62498,0.918391 1.45688,1.134025 1.47444,0.353626 3.92315,0.625176 5.8806,0.628575 8.05706,0.0023 10.6515,-2.800071 12.81711,-10.3581315 l 11.55179,-40.3212285 c 0.0703,-0.143068 0.0669,-0.345337 0.0659,-0.487898 z m 14.3594,35.906359 0.001,-49.898934 c 0.006,-0.782242 -0.56832,-1.348426 -1.26955,-1.341505 l -3.64319,9.01e-4 c -0.7591,-0.0023 -1.25165,0.631206 -1.25815,1.342167 l -10e-4,49.8989345 c 0.007,0.77251347 0.57251,1.3965604 1.26033,1.39936821 l 3.64319,-9.0082017e-4 C 223.44106,0.00501122 223.94468,-0.69793111 223.93776,-1.399164 Z m 39.88412,-17.427898 -0.004,-3.774182 c 0.004,-9.931651 -5.17215,-16.393204 -15.38892,-16.395579 -10.01635,0.0058 -15.54263,6.387555 -15.54652,16.390488 l 0.006,6.290302 c 3.2e-4,13.0295904 7.8473,16.8076377 15.89278,16.80813622 4.68741,-6.3129e-4 8.52799,-0.42100992 12.53173,-1.19511834 1.11397,-0.21407982 1.39185,-0.69192898 1.39498,-1.60515938 l -10e-4,-2.37356 c 0.005,-0.6993887 -0.56578,-0.9920224 -1.11288,-0.9842728 -0.14071,-0.010557 -0.212,-0.01005 -0.35456,-0.00903 -3.22537,0.5065474 -8.40603,0.7727091 -12.46533,0.7785 -6.44259,-0.00613 -9.72438,-3.0922933 -9.72591,-11.4228977 l 7.8e-4,-0.972939 23.44863,-0.0013 c 0.84195,0.0036 1.32108,-0.620141 1.32421,-1.533371 z m -6.22425,-3.163459 -18.54738,-8.42e-4 -0.008,-0.61838 c 0.006,-7.558092 3.36459,-10.986314 9.39292,-10.986862 6.14589,0.0063 9.15782,3.073209 9.15446,10.987704 z m 0,0"
         style="fill:#dd1d26;fill-opacity:1;fill-rule:nonzero;stroke:none"
         aria-label="Lif&#10;es&#10;tyl&#10;e"
         transform="matrix(1.3167196,-0.20982661,0.20982661,1.3167196,290.528,643.764)" />
    </g>
  </g>
</svg>
